<svg xmlns="http://www.w3.org/2000/svg">
    <symbol viewBox="0 0 40 40" id="list">
        <rect x="12.5" y="10" width="20" height="4"/>
        <path d="M11.5,12c0,1.104-0.896,2-2,2H9.5c-1.104,0-2-0.896-2-2l0,0c0-1.105,0.895-2,2-2H9.5C10.604,10,11.5,10.895,11.5,12L11.5,12  z"/>
        <rect x="12.5" y="18" width="20" height="4"/>
        <path d="M11.5,20c0,1.104-0.896,2-2,2H9.5c-1.104,0-2-0.896-2-2l0,0c0-1.105,0.895-2,2-2H9.5C10.604,18,11.5,18.895,11.5,20L11.5,20  z"/>
        <rect x="12.5" y="26" width="20" height="4"/>
        <path d="M11.5,28c0,1.104-0.896,2-2,2H9.5c-1.104,0-2-0.896-2-2l0,0c0-1.105,0.895-2,2-2H9.5C10.604,26,11.5,26.895,11.5,28L11.5,28  z"/>
    </symbol>
    <symbol viewBox="0 0 40 40" id="share">
        <path d="M6.366,36.762v-3c16.304,0,25.588-3.625,26.648-22.027l-3.405,3.405l-2.121-2.121l8.628-8.628v3.621   C36.116,31.953,24.733,36.762,6.366,36.762z"/>
    </symbol>
    <symbol viewBox="0 0 40 40" id="one">
        <path d="M20.578,37.987V15.603l-5.645,3.883l-1.7-2.472l10.345-7.117v24.731c6.519-1.326,11.415-7.169,11.415-13.964   c0-7.855-6.391-14.247-14.247-14.247S6.5,12.81,6.5,20.665c0,6.808,4.842,12.689,11.513,13.985l-0.572,2.945   C9.363,36.026,3.5,28.906,3.5,20.665c0-9.51,7.737-17.247,17.247-17.247s17.247,7.737,17.247,17.247   c0,8.896-6.936,16.444-15.79,17.186L20.578,37.987z"/>
    </symbol>
    <symbol viewBox="0 0 40 40" id="while">
        <path d="M20.539,37.912c-9.51,0-17.247-7.737-17.247-17.247S11.136,3.418,20.646,3.418S38,11.155,38,20.665V22h-3v-1.335   c0-7.855-6.498-14.247-14.354-14.247s-14.3,6.391-14.3,14.247s6.364,14.247,14.22,14.247c4.594,0,8.806-2.178,11.467-5.804   l-8.014-0.88l0.324-2.982l12.533,1.378l-1.002,1.94C32.899,34.33,27.022,37.912,20.539,37.912z"/>
    </symbol>
    <symbol viewBox="0 0 40 40" id="rand">
        <path d="M34.423,30c-10.673,0-12.231-4.356-13.776-9.567C22.192,15.233,23.75,11,34.423,11h3.621l-8.532-8.707L27.413,4.26   l3.641,3.599c-7.433,0.765-10.345,4.074-11.981,7.838C17.318,11.566,14.065,7.998,5,7.998v3c9.82,0,10.944,4.11,12.492,9.367   c-1.549,5.258-2.673,9.37-12.492,9.37v3c9.095,0,12.339-3.515,14.09-7.626c1.617,3.732,4.495,7,11.878,7.76l-3.598,3.593   l2.121,2.111L38.044,30H34.423z"/>
    </symbol>
    <symbol viewBox="0 0 40 40" id="del">
        <path d="M26.835,5c-1.082,0-2.145-0.779-2.364-1.5C24.253,2.779,23.189,2,22.108,2h-2.674   c-1.082,0-2.145,0.779-2.364,1.5S15.787,5,14.706,5H6.695C5.613,5,5,5.846,5,6.927v1.311C5,9.32,5.613,10,6.695,10h28.151   C35.928,10,37,9.32,37,8.238V6.927C37,5.846,35.928,5,34.846,5H26.835z"/>
        <path d="M9.841,36.003C9.971,37.083,10.967,38,12.055,38h17.617c1.088,0,2.084-0.917,2.213-1.997l2.777-23.068   c0.13-1.08-0.654-1.935-1.741-1.935H8.806c-1.088,0-1.871,0.855-1.741,1.935L9.841,36.003z"/>
    </symbol>
    <symbol viewBox="0 0 40 40" id="like">
        <path d="M29.54,3.081c-5.308,0-6.656,2.871-9.419,5.635c-2.763-2.763-4.112-5.635-9.419-5.635   c-5.86,0-9.139,4.956-9.139,10.814c0,10.788,12.099,17.02,18.559,23.48c6.459-6.459,18.559-12.692,18.559-23.48   C38.68,8.037,35.4,3.081,29.54,3.081z"/>
    </symbol>
    <symbol viewBox="0 0 40 40" id="next">
        <path d="M18.641,5.658c-1.113-0.724-2.025-0.23-2.026,1.098l-0.02,26.661c-0.001,1.328,0.909,1.823,2.023,1.099   l20.181-13.114c1.114-0.724,1.114-1.908,0.001-2.633L18.641,5.658z"/>
        <path d="M4.755,5.658C3.642,4.933,2.73,5.427,2.729,6.756l-0.02,26.661c-0.001,1.328,0.909,1.823,2.023,1.099   l20.181-13.114c1.114-0.724,1.114-1.908,0.001-2.633L4.755,5.658z"/>
    </symbol>
    <symbol viewBox="0 0 40 40" id="prev">
        <path d="M23.336,34.515c1.117,0.727,2.032,0.231,2.033-1.102l0.02-26.752c0.001-1.333-0.913-1.829-2.03-1.103   L3.11,18.716c-1.118,0.726-1.118,1.915-0.001,2.642L23.336,34.515z"/>
        <path d="M37.269,34.515c1.117,0.727,2.032,0.231,2.033-1.102l0.02-26.752c0.001-1.333-0.913-1.829-2.03-1.103   L17.043,18.716c-1.118,0.726-1.118,1.915-0.001,2.642L37.269,34.515z"/>
    </symbol>
    <symbol viewBox="0 0 40 40" id="pause">
        <path d="M36,32.196C36,33.192,35.192,34,34.196,34h-8.392C24.808,34,24,33.192,24,32.196V6.804   C24,5.808,24.808,5,25.804,5h8.392C35.192,5,36,5.808,36,6.804V32.196z"/>
        <path d="M17,32.196C17,33.192,16.192,34,15.196,34H6.804C5.808,34,5,33.192,5,32.196V6.804C5,5.808,5.808,5,6.804,5   h8.392C16.192,5,17,5.808,17,6.804V32.196z"/>
    </symbol>
    <symbol viewBox="0 0 40 40" id="play">
        <path d="M8.625,2.723c-1.34-0.872-2.437-0.277-2.438,1.322L6.163,36.128c-0.001,1.598,1.094,2.194,2.435,1.323   L35.289,21.67c1.34-0.871,1.341-2.297,0.001-3.168L8.625,2.723z"/>
    </symbol>
</svg>